<?xml version="1.0" encoding="UTF-8"?>
<svg width="165px" height="165px" viewBox="0 0 165 165" version="1.1" xmlns="http://www.w3.org/2000/svg" xmlns:xlink="http://www.w3.org/1999/xlink">
    <!-- Generator: Sketch 43.2 (39069) - http://www.bohemiancoding.com/sketch -->
    <title>allergy</title>
    <desc>Created with Sketch.</desc>
    <defs></defs>
    <g id="Page-1" stroke="none" stroke-width="1" fill="none" fill-rule="evenodd">
        <g id="allergy" fill-rule="nonzero">
            <path d="M82.6,165 C37.4,165 0.5,128.2 0.5,82.9 C0.5,37.7 37.3,0.8 82.6,0.8 C127.9,0.8 164.7,37.6 164.7,82.9 C164.7,128.2 127.9,165 82.6,165 Z M82.6,10.9 C42.9,10.9 10.5,43.2 10.5,83 C10.5,122.8 42.8,155.1 82.6,155.1 C122.3,155.1 154.7,122.8 154.7,83 C154.7,43.2 122.4,10.9 82.6,10.9 Z" id="Shape" fill="#E0624B"></path>
            <path d="M98.8,84.3 C77,88.7 84.1,107.5 84.1,107.5 C105.4,100.5 98.8,84.3 98.8,84.3 L98.8,84.3 Z M97.6,67 C77.4,71 83.9,88.5 83.9,88.5 C103.7,82 97.6,67 97.6,67 L97.6,67 Z M90.8,65.1 L93.6,65.1 L93.6,49.8 L90.8,49.8 L90.8,65.1 L90.8,65.1 Z M82,49.3 C82,49.3 66.8,60.2 81.4,74.8 C81.4,74.8 94.8,65.8 82,49.3 L82,49.3 Z M79.9,46.8 L82.7,46.8 L82.7,34.6 L79.9,34.6 L79.9,46.8 L79.9,46.8 Z M69,65.1 L71.8,65.1 L71.8,49.8 L69,49.8 L69,65.1 L69,65.1 Z M65.4,67 C65.4,67 59.2,82 79.1,88.5 C79.1,88.5 85.6,71 65.4,67 L65.4,67 Z M64.2,84.3 C64.2,84.3 57.6,100.5 78.9,107.5 C78.9,107.6 86,88.7 64.2,84.3 L64.2,84.3 Z M63.9,103.5 C63.9,103.5 57.1,120 78.9,127.2 C78.8,127.2 86,108 63.9,103.5 L63.9,103.5 Z M84.1,127.2 C105.9,120 99.1,103.5 99.1,103.5 C76.9,108 84.1,127.2 84.1,127.2 L84.1,127.2 Z" id="Shape" fill="#F3DC76"></path>
        </g>
    </g>
</svg>