<?xml version="1.0" encoding="UTF-8"?>
<svg width="20px" height="20px" viewBox="0 0 20 20" version="1.1" xmlns="http://www.w3.org/2000/svg" xmlns:xlink="http://www.w3.org/1999/xlink">
    <!-- Generator: Sketch 43.2 (39069) - http://www.bohemiancoding.com/sketch -->
    <title>close</title>
    <desc>Created with Sketch.</desc>
    <defs></defs>
    <g id="Page-1" stroke="none" stroke-width="1" fill="none" fill-rule="evenodd">
        <g id="close" fill-rule="nonzero" fill="#B2B2B2">
            <g id="Group" transform="translate(10.000000, 10.000000) scale(-1, 1) rotate(-180.000000) translate(-10.000000, -10.000000) translate(0.000000, -0.000000)">
                <g id="Shape">
                    <path d="M12.1432979,10.0131383 L19.5472872,17.4171277 C20.1385638,18.0078191 20.1385638,18.9658511 19.5472872,19.5564894 C18.9565957,20.147766 17.9992021,20.147766 17.4079255,19.5564894 L10.003883,12.1525 L2.59925532,19.5565426 C2.00920213,20.1478191 1.05053191,20.1478191 0.459893617,19.5565426 C-0.130797872,18.9658511 -0.130797872,18.0078191 0.459893617,17.4171809 L7.86452128,10.0131383 L0.443510638,2.59212766 C-0.147765957,2.00085106 -0.147765957,1.04340426 0.443510638,0.452765957 C0.738829787,0.156808511 1.12617021,0.00914893617 1.51351064,0.00914893617 C1.90021277,0.00914893617 2.28755319,0.156808511 2.58292553,0.452765957 L10.003883,7.8737234 L17.4079255,0.469680851 C17.703883,0.174361702 18.0905851,0.0260638298 18.4779255,0.0260638298 C18.8646277,0.0260638298 19.2519681,0.174361702 19.5473404,0.469680851 C20.138617,1.06037234 20.138617,2.01776596 19.5473404,2.60904255 L12.1432979,10.0131383 Z"></path>
                </g>
            </g>
        </g>
    </g>
</svg>