<?xml version="1.0" encoding="UTF-8"?>
<svg width="838px" height="479px" viewBox="0 0 838 479" version="1.1" xmlns="http://www.w3.org/2000/svg" xmlns:xlink="http://www.w3.org/1999/xlink">
    <!-- Generator: Sketch 43.2 (39069) - http://www.bohemiancoding.com/sketch -->
    <title>default</title>
    <desc>Created with Sketch.</desc>
    <defs></defs>
    <g id="Page-1" stroke="none" stroke-width="1" fill="none" fill-rule="evenodd">
        <g id="default">
            <rect id="Rectangle-Copy" fill="#D8D8D8" x="0" y="0" width="838" height="479"></rect>
            <g transform="translate(274.000000, 127.000000)" id="Shape" fill-rule="nonzero" fill="#539480">
                <path d="M146.170523,33.4164362 C98.5174922,33.4164362 59.7493594,72.0870255 59.7493594,119.620158 C59.7493594,167.153291 98.5180625,205.824449 146.170523,205.824449 C193.822984,205.824449 232.592258,167.153291 232.592258,119.620158 C232.592258,72.0870255 193.823555,33.4164362 146.170523,33.4164362 Z M146.170523,194.446329 C104.806898,194.446329 71.1550391,160.87914 71.1550391,119.619589 C71.1550391,78.3606071 104.806328,44.7934184 146.170523,44.7934184 C187.534148,44.7934184 221.186008,78.3600383 221.186008,119.619589 C221.186008,160.87914 187.534148,194.446329 146.170523,194.446329 Z"></path>
                <path d="M197.328695,91.8134235 C195.819078,89.056074 192.355,88.0411964 189.590125,89.5464464 C189.497734,89.5970765 189.412187,89.655102 189.323219,89.7097143 C186.765367,91.2883495 185.85857,94.6003546 187.31743,97.2655459 C191.044992,104.075579 193.014852,111.806056 193.014852,119.620158 C193.014852,145.385191 172.000547,166.346622 146.170523,166.346622 C120.33993,166.346622 99.3261953,145.384622 99.3261953,119.620158 C99.3261953,93.855125 120.3405,72.8936939 146.170523,72.8936939 C148.649102,72.8936939 151.136805,73.08825 153.563484,73.4722423 C156.573594,73.9489617 159.393219,71.9829209 160.024555,69.0503571 C160.046797,68.9485281 160.072461,68.8484056 160.089,68.7437321 C160.58175,65.6405051 158.459617,62.7261454 155.348562,62.2346352 C152.33275,61.7579158 149.244508,61.5161429 146.169953,61.5161429 C114.051094,61.5161429 87.919375,87.5815434 87.919375,119.620158 C87.919375,151.658773 114.050523,177.724173 146.169953,177.724173 C178.289383,177.724173 204.421102,151.658204 204.421102,119.620158 C204.421102,109.906005 201.968758,100.290837 197.328695,91.8134235 Z"></path>
                <path d="M182.608359,72.0836122 C182.346016,71.8219286 182.055156,71.583 181.741484,71.3782041 C181.433516,71.1734082 181.102734,70.9970561 180.754844,70.8548367 C180.412656,70.7126173 180.053359,70.6045306 179.688359,70.5305765 C178.952656,70.3826684 178.194141,70.3826684 177.458437,70.5305765 C177.093437,70.6045306 176.739844,70.7126173 176.391953,70.8548367 C176.049766,70.9970561 175.718984,71.1734082 175.411016,71.3782041 C175.097344,71.583 174.806484,71.8219286 174.538437,72.0836122 C174.276094,72.3452959 174.042266,72.6354235 173.83125,72.9483061 C173.625937,73.2555 173.449141,73.585449 173.306562,73.9324643 C173.216453,74.1475 173.145164,74.3705 173.083,74.5963444 C173.0465,74.7288929 173.00943,74.8614413 172.982055,74.9962653 C172.908484,75.3597781 172.873695,75.7352372 172.873695,76.1050077 C172.873695,76.4804668 172.907914,76.8508061 172.982055,77.2205765 C173.056195,77.5846582 173.164555,77.9373622 173.307133,78.2838087 C173.449711,78.6257041 173.626508,78.9556531 173.83182,79.2628469 C174.042836,79.5757296 174.276664,79.8658571 174.539008,80.1275408 C174.807055,80.3892245 175.097914,80.6281531 175.411586,80.8386378 C175.719555,81.0434337 176.050336,81.2197857 176.392523,81.3620051 C176.740414,81.5042245 177.094008,81.6123112 177.459008,81.6862653 C177.829711,81.7602194 178.206117,81.7937832 178.57682,81.7937832 C178.947523,81.7937832 179.32393,81.7596505 179.68893,81.6862653 C180.05393,81.6128801 180.413227,81.5042245 180.755414,81.3620051 C181.054258,81.2396964 181.336562,81.088375 181.60632,80.9194184 C181.650805,80.8915434 181.698141,80.8676505 181.741484,80.8386378 C182.055156,80.6281531 182.346016,80.3892245 182.608359,80.1275408 C182.870703,79.8658571 183.110234,79.5757296 183.315547,79.2628469 C183.520859,78.9556531 183.697656,78.6257041 183.840234,78.2838087 C183.982813,77.9373622 184.091172,77.5789694 184.165313,77.2205765 C184.239453,76.8508061 184.279375,76.4804668 184.279375,76.1050077 C184.279375,74.6088597 183.669141,73.1411556 182.608359,72.0836122 Z"></path>
                <path d="M291.854,201.090819 L273.356484,50.8246582 C272.069289,40.3664133 268.776875,30.4139005 263.569922,21.2447321 C260.373891,15.6156888 256.491203,10.3814464 252.030219,5.68706888 L251.532336,5.16313265 C247.731773,1.16335459 242.046898,0.0972780612 237.047539,2.44731122 C232.04932,4.79677551 229.254789,9.8501148 229.928328,15.3204413 L253.375586,205.803969 C253.450867,206.415513 253.554094,207.016816 253.684125,207.607311 C255.632313,216.460753 263.559656,222.784964 272.60082,222.783827 C273.385,222.783827 274.179445,222.73661 274.976742,222.638763 C281.275273,221.867365 286.503328,218.146337 289.438727,213.034972 C289.747836,212.496814 290.031281,211.943865 290.287922,211.376694 C290.544563,210.809523 290.774398,210.229268 290.976289,209.636497 C291.884797,206.970737 292.220141,204.066617 291.854,201.090819 Z M241.250172,13.9335179 C241.222227,13.705398 241.147516,13.0972679 241.911164,12.7383061 C242.120469,12.6398903 242.304109,12.6017755 242.463797,12.6017755 C242.886398,12.6017755 243.140187,12.869148 243.25425,12.98975 L243.752133,13.5136862 C247.577789,17.5390638 250.906133,22.0263699 253.645914,26.8515893 C258.10975,34.7123393 260.932797,43.2449337 262.036352,52.2110128 L271.894773,132.297594 L256.058906,134.236898 L241.250172,13.9335179 Z M280.039406,206.356349 C278.999727,208.982288 276.589586,210.977911 273.588031,211.345406 C269.220008,211.883564 265.233523,208.772372 264.69743,204.417046 L257.448758,145.529686 L273.284625,143.590383 L280.533297,202.477742 C280.700969,203.837929 280.511055,205.162276 280.039406,206.356349 Z"></path>
                <path d="M70.3343594,6.67293367 C67.2067656,6.28837245 64.3626172,8.50813265 63.9787969,11.6261505 L58.7918047,53.7640485 C57.9831016,60.3311709 52.6626563,65.2855255 46.0783984,65.6860153 L42.2977969,65.222949 L49.1193047,9.8068801 C49.503125,6.68886224 47.2800469,3.85016327 44.1535938,3.4667398 C41.0265703,3.08047194 38.1818516,5.30193878 37.7980313,8.41995663 L30.9765234,63.8360255 L27.1925,63.3729592 C20.9019531,61.3944031 16.9422734,55.304 17.7504063,48.7374464 L22.9373984,6.60011735 C23.3212188,3.48209949 21.0981406,0.64340051 17.9716875,0.259977041 C14.8458047,-0.126859694 11.9999453,2.09517602 11.616125,5.21319388 L6.42913281,47.350523 C5.13167188,57.8935306 10.5262578,67.7783469 19.6261641,72.5193724 L0.224132813,197.067717 C0.221851563,197.08137 0.219570313,197.096161 0.217289063,197.110383 C-0.5703125,202.434508 0.796726563,207.7245 4.06632813,212.005304 C7.33592969,216.286107 12.0860625,219.005342 17.4367344,219.660689 L17.5405313,219.673204 C18.3669141,219.774464 19.1915859,219.824526 20.0099844,219.824526 C24.5205859,219.824526 28.8566719,218.303347 32.4279688,215.429378 C36.6477109,212.033747 39.2426328,207.197719 39.7348125,201.812156 L51.2026563,76.3877398 C61.183125,73.9842321 68.8161875,65.6945485 70.1136484,55.1509719 L75.3006406,13.013074 C75.6838906,9.89505612 73.4608125,7.05635714 70.3343594,6.67293367 Z M28.3764688,200.779643 C28.1665938,203.071651 27.0624688,205.129281 25.2665547,206.574798 C23.4706406,208.020316 21.2224688,208.665423 18.9349453,208.381554 L18.8311484,208.369038 C16.5521797,208.090288 14.5304219,206.933191 13.1394297,205.111077 C11.7512891,203.294082 11.169,201.04986 11.4986406,198.790278 L30.7415547,75.2710332 L35.2418906,75.8222755 C35.2441719,75.8222755 35.2458828,75.8228444 35.2481641,75.8234133 L35.2532969,75.8234133 L39.7502109,76.3740867 L28.3764688,200.779643 Z"></path>
            </g>
        </g>
    </g>
</svg>