<?xml version="1.0" encoding="UTF-8"?>
<svg width="16px" height="36px" viewBox="0 0 16 36" version="1.1" xmlns="http://www.w3.org/2000/svg" xmlns:xlink="http://www.w3.org/1999/xlink">
    <!-- Generator: Sketch 43.2 (39069) - http://www.bohemiancoding.com/sketch -->
    <title>spice</title>
    <desc>Created with Sketch.</desc>
    <defs></defs>
    <g id="Page-1" stroke="none" stroke-width="1" fill="none" fill-rule="evenodd">
        <g id="spice" transform="translate(5.170213, 19.000000) rotate(-60.000000) translate(-5.170213, -19.000000) translate(-11.000000, 9.000000)">
            <path d="M24.0825495,4.38026248 C24.0825495,4.38026248 26.832053,2.60607808 29.5816984,4.38026248 C32.3313438,6.15444688 29.5816984,10.2418228 29.5816984,10.2418228 L24.0825495,4.38026248" id="Fill-84" fill="#9EC83D"></path>
            <path d="M27.9468048,5.85714191 C27.9468048,5.85714191 30.0500672,3.43161 30.3479396,0.85997879 C30.4262374,0.183241202 31.1506346,-0.20895738 31.7492162,0.116149003 L31.7788616,0.132319216 C32.1388616,0.327780209 32.3380105,0.730758932 32.2662374,1.13402134 C32.0755991,2.2067873 31.3411311,4.33004971 28.5439679,6.22877312 L27.9468048,5.85714191" id="Fill-85" fill="#9EC83D"></path>
            <path d="M26.9828332,4.54210645 C30.5222658,6.0080639 31.4042516,10.602532 28.6791452,13.2950143 C23.2387197,18.67161 16.0380105,20.5411135 9.67049276,19.7524611 C6.51446439,19.365227 3.55786865,18.3411135 0.972053043,16.7794114 C-0.999010787,15.5893405 0.28765588,12.5893405 2.51233673,13.1828157 C4.9354573,13.8293405 7.39928709,13.9067873 9.66042184,13.5171419 C14.1534715,12.7564327 17.8733296,10.2144469 20.0197126,6.64650361 C21.3946062,4.3609717 24.2090743,3.39302844 26.6733296,4.41373766 C26.7765921,4.45643269 26.8797126,4.49926957 26.9828332,4.54210645" id="Fill-86" fill="#D4483C"></path>
        </g>
    </g>
</svg>